<svg width="39" height="39" viewBox="0 0 39 39" fill="none" xmlns="http://www.w3.org/2000/svg">
<g clip-path="url(#clip0_318_248)">
<path d="M19.5 0C8.73059 0 0 8.73059 0 19.5C0 30.2694 8.73059 39 19.5 39C30.2694 39 39 30.2694 39 19.5C39 8.73059 30.27 0 19.5 0ZM14.07 28.4133C14.07 28.5928 13.9247 28.7381 13.7452 28.7381H10.758C10.5785 28.7381 10.4332 28.5928 10.4332 28.4133V10.8882C10.4332 10.7087 10.5785 10.5634 10.758 10.5634H13.7452C13.9247 10.5634 14.07 10.7087 14.07 10.8882V28.4133ZM28.5668 28.3331C28.5668 28.5126 28.4215 28.6579 28.242 28.6579H17.985C17.8055 28.6579 17.6602 28.5126 17.6602 28.3331V25.3459C17.6602 25.1664 17.8055 25.0211 17.985 25.0211H28.242C28.4215 25.0211 28.5668 25.1664 28.5668 25.3459V28.3331ZM28.5668 21.1283C28.5668 21.3078 28.4215 21.4531 28.242 21.4531H17.985C17.8055 21.4531 17.6602 21.3078 17.6602 21.1283V18.1411C17.6602 17.9617 17.8055 17.8163 17.985 17.8163H28.242C28.4215 17.8163 28.5668 17.9617 28.5668 18.1411V21.1283ZM28.5668 13.8851C28.5668 14.0646 28.4215 14.2099 28.242 14.2099H17.985C17.8055 14.2099 17.6602 14.0646 17.6602 13.8851V10.8979C17.6602 10.7184 17.8055 10.5731 17.985 10.5731H28.242C28.4215 10.5731 28.5668 10.7184 28.5668 10.8979V13.8851Z" fill="#FEFEFE"/>
</g>
<defs>
<clipPath id="clip0_318_248">
<rect width="39" height="39" fill="white"/>
</clipPath>
</defs>
</svg>
