<svg width="24" height="35" viewBox="0 0 24 35" fill="none" xmlns="http://www.w3.org/2000/svg">
<g clip-path="url(#clip0_318_257)">
<path fill-rule="evenodd" clip-rule="evenodd" d="M10.6517 2.72374H6.67379C4.47683 2.72374 2.69592 4.52251 2.69592 6.7415C2.69592 8.9605 4.47683 10.7593 6.67379 10.7593H10.6517V2.72374ZM10.6517 0H17.3262C21.0124 0 24 3.01836 24 6.7415C24 8.93879 22.9599 10.8903 21.3486 12.1208C22.9591 13.3512 24 15.3027 24 17.5C24 21.2231 21.0124 24.2415 17.3262 24.2415C15.8355 24.2415 14.4591 23.7484 13.3483 22.9141V28.2593C13.3483 31.9824 10.36 35.0008 6.67379 35.0008C2.98762 35.0008 0 31.9816 0 28.2585C0 26.0612 1.04091 24.1097 2.6514 22.8792C1.04091 21.6488 0 19.6973 0 17.5C0 15.3027 1.04091 13.3512 2.6514 12.1208C1.04091 10.8895 0 8.93802 0 6.7415C0 3.01836 2.98839 0 6.67456 0H10.6524H10.6517ZM13.3483 2.72374V10.7585H17.3262C19.5232 10.7585 21.3033 8.95973 21.3033 6.74073C21.3033 4.52173 19.5224 2.72296 17.3262 2.72296H13.3483V2.72374ZM6.67379 21.517H10.6517V13.4822H6.67379C4.47683 13.4822 2.69592 15.281 2.69592 17.5C2.69592 19.719 4.46838 21.5092 6.65767 21.5178H6.67379V21.517ZM2.69592 28.2585C2.69592 26.0449 4.46838 24.2493 6.65767 24.2407H6.67379H10.6517V28.2585C10.6517 30.4775 8.87075 32.2763 6.67379 32.2763C4.47683 32.2763 2.69592 30.4775 2.69592 28.2585ZM13.3476 17.4915C13.3522 15.2764 15.1308 13.4822 17.3254 13.4822C19.5201 13.4822 21.3025 15.281 21.3025 17.5C21.3025 19.719 19.5216 21.5178 17.3254 21.5178C15.1292 21.5178 13.3522 19.7236 13.3476 17.5085V17.4922V17.4915Z" fill="#FEFEFE"/>
</g>
<defs>
<clipPath id="clip0_318_257">
<rect width="24" height="35" fill="white"/>
</clipPath>
</defs>
</svg>
