<svg width="39" height="39" viewBox="0 0 39 39" fill="none" xmlns="http://www.w3.org/2000/svg">
<g clip-path="url(#clip0_318_251)">
<path d="M20.9082 14.565C20.9574 14.5691 20.9733 14.6024 20.9955 14.6246C22.2897 15.9172 23.5831 17.2106 24.878 18.5025C24.93 18.5545 24.9327 18.5933 24.9085 18.6585C24.2333 20.4696 25.4166 22.4276 27.3325 22.6723C28.9982 22.8851 30.5197 21.668 30.6791 19.9948C30.8302 18.4062 29.7281 16.9902 28.1497 16.7524C27.6999 16.6845 27.2542 16.7198 26.8196 16.8564C26.7592 16.8751 26.7197 16.8744 26.6705 16.8252C25.2724 15.4237 23.8722 14.0236 22.4706 12.6249C22.4234 12.5785 22.4144 12.5404 22.4338 12.4773C22.962 10.7598 21.9153 9.00413 20.1512 8.6541C19.6702 8.55845 19.1912 8.58757 18.7212 8.73173C18.6533 8.75253 18.6131 8.74213 18.5639 8.69292C17.113 7.23946 15.6608 5.7874 14.2073 4.33671C14.1594 4.28889 14.1539 4.26532 14.2052 4.21403C15.3656 3.05723 16.5197 1.89488 17.6828 0.74085C18.6914 -0.25931 20.2476 -0.245448 21.2617 0.767188C23.2837 2.78622 25.3036 4.80803 27.3249 6.82845C30.9564 10.4597 34.5886 14.0909 38.2202 17.7221C39.2572 18.759 39.2613 20.3157 38.225 21.3526C32.6013 26.9765 26.9776 32.6004 21.3532 38.2236C20.3945 39.1822 18.95 39.2619 17.9296 38.4142C17.8575 38.3546 17.7896 38.2888 17.7237 38.2229C12.0744 32.5755 6.4257 26.9266 0.775648 21.2791C0.252302 20.7579 -0.0173425 20.1334 0.000680041 19.3946C0.0173162 18.7139 0.281415 18.1373 0.763171 17.6555C3.5927 14.8276 6.42085 11.9991 9.24969 9.17117C10.2777 8.14328 11.307 7.11609 12.3329 6.08613C12.3925 6.02652 12.421 6.01959 12.4854 6.08405C13.9092 7.51255 15.3358 8.93828 16.763 10.3633C16.8108 10.4111 16.8268 10.4479 16.8004 10.5179C16.2306 12.0115 16.9155 13.6632 18.3746 14.3154C18.437 14.3432 18.455 14.3764 18.455 14.443C18.4536 17.9501 18.4536 21.458 18.455 24.9651C18.455 25.0344 18.437 25.0691 18.3705 25.0982C17.1817 25.6229 16.4705 26.8705 16.6202 28.1603C16.7817 29.5459 17.8568 30.6278 19.2362 30.7935C20.852 30.9868 22.3361 29.8349 22.5503 28.2213C22.7146 26.9834 22.0983 25.7809 20.9934 25.1917C20.9276 25.1564 20.9075 25.1183 20.9075 25.0455C20.9096 21.5848 20.9089 18.1241 20.9089 14.6641V14.5657L20.9082 14.565Z" fill="white"/>
</g>
<defs>
<clipPath id="clip0_318_251">
<rect width="39" height="39" fill="white"/>
</clipPath>
</defs>
</svg>
