<svg width="41" height="40" viewBox="0 0 41 40" fill="none" xmlns="http://www.w3.org/2000/svg">
<g clip-path="url(#clip0_318_254)">
<path d="M-0.000209763 18.7883C0.14699 17.654 0.283586 16.5186 0.576113 15.4093C1.74685 10.9752 4.1064 7.30395 7.69158 4.44035C10.6312 2.09276 13.9694 0.591479 17.7124 0.167081C25.4091 -0.70602 31.7811 1.84847 36.6599 7.87293C39.1847 10.9908 40.5844 14.6153 40.9175 18.6349C41.2349 22.4639 40.6517 26.1345 38.8966 29.5652C36.3455 34.5508 32.4566 38.0532 27.1275 39.896C26.1688 40.2275 25.5258 39.7608 25.5183 38.7219C25.5046 36.79 25.5233 34.858 25.5027 32.9268C25.4902 31.7377 25.2002 30.6334 24.3476 29.7385C24.0606 29.4375 24.3943 29.4456 24.5347 29.4287C25.3168 29.3359 26.0946 29.2156 26.8512 29.0006C29.1109 28.3587 31.0825 27.2943 32.2489 25.1324C32.9481 23.8362 33.2849 22.4321 33.4278 20.9719C33.5575 19.6489 33.5463 18.3402 33.1764 17.052C32.882 16.0256 32.388 15.1027 31.6863 14.2975C31.483 14.0638 31.4181 13.8588 31.5223 13.5453C32.0556 11.9443 31.8647 10.3695 31.2971 8.81396C31.2085 8.57216 31.0532 8.49675 30.8137 8.4874C30.1569 8.46185 29.5507 8.65567 28.9525 8.88999C27.919 9.29445 26.9254 9.77867 26.0079 10.4056C25.7304 10.5951 25.4715 10.6325 25.149 10.5427C23.6633 10.1302 22.1364 9.9675 20.604 9.95628C19.0172 9.94444 17.4354 10.1027 15.8973 10.524C15.4956 10.6343 15.1931 10.567 14.8576 10.3445C13.6151 9.52129 12.2703 8.91928 10.8227 8.55222C10.784 8.54225 10.746 8.52916 10.7067 8.5223C9.87025 8.37336 9.748 8.44191 9.50101 9.2396C9.04818 10.7004 8.96086 12.1674 9.46608 13.6344C9.54716 13.8693 9.49914 14.0364 9.34445 14.214C7.71154 16.0892 7.29426 18.3009 7.51257 20.7058C7.6317 22.017 7.90177 23.2803 8.41073 24.4961C9.0775 26.0872 10.1996 27.2432 11.7053 28.0621C13.1105 28.8261 14.623 29.2094 16.1967 29.3982C16.2759 29.4076 16.3558 29.415 16.4343 29.4281C16.6776 29.4693 16.7805 29.5627 16.5709 29.7827C15.9902 30.3928 15.6946 31.1388 15.5474 31.9539C15.5187 32.1135 15.4963 32.2768 15.3247 32.3522C14.0991 32.8887 11.9666 33.2253 10.6324 32.0256C10.2127 31.6486 9.83969 31.2366 9.55714 30.7462C8.96772 29.7229 8.12569 29.0037 6.99737 28.6342C6.59943 28.5039 6.19152 28.4628 5.77799 28.5694C5.51353 28.6373 5.41186 28.7644 5.58338 29.0268C5.73932 29.2661 5.92331 29.4817 6.16844 29.6188C7.25123 30.2258 7.85624 31.2173 8.34836 32.298C8.62966 32.9155 8.87042 33.5475 9.38 34.0361C10.2638 34.8824 11.3628 35.1497 12.5255 35.2257C13.3762 35.2818 14.2326 35.2962 15.0765 35.1285C15.3503 35.0743 15.447 35.1678 15.4476 35.427C15.4495 36.5993 15.4751 37.7721 15.4507 38.9437C15.4339 39.7732 14.7253 40.1939 13.869 39.906C12.7169 39.519 11.6036 39.041 10.5408 38.4495C6.36928 36.1269 3.40596 32.7149 1.50734 28.3674C0.703353 26.5259 0.253023 24.5809 0.0584205 22.5798C0.0471934 22.4614 0.0191257 22.3448 -0.00145721 22.2277C-0.00145721 21.0816 -0.00145721 19.9362 -0.00145721 18.7901L-0.000209763 18.7883Z" fill="white"/>
</g>
<defs>
<clipPath id="clip0_318_254">
<rect width="41" height="40" fill="white"/>
</clipPath>
</defs>
</svg>
