<svg width="34" height="39" viewBox="0 0 34 39" fill="none" xmlns="http://www.w3.org/2000/svg">
<g clip-path="url(#clip0_317_188)">
<path d="M26.7004 33.645C26.7154 33.6528 26.7305 33.6601 26.746 33.668C26.7349 33.6523 26.7182 33.6478 26.7004 33.645Z" fill="white"/>
<path d="M28.9574 7.53735C25.5196 7.56093 22.0818 7.57778 18.6446 7.58844C18.4309 7.58901 18.3692 7.64796 18.3697 7.86467C18.3769 10.2575 18.3625 19.8301 18.3569 22.223C18.3569 22.447 18.5656 22.4936 18.7898 22.4537C20.8037 22.0955 22.8202 21.7525 24.8346 21.3988C25.0361 21.3634 25.1062 21.4033 25.0973 21.6239C25.06 22.5424 25.0277 23.461 25.0182 24.38C25.0155 24.631 24.9275 24.7152 24.6988 24.7753C22.6789 25.307 20.6629 25.8561 18.6429 26.3878C18.4215 26.4462 18.368 26.541 18.3742 26.7617C18.4042 27.9143 18.4165 29.0675 18.4359 30.2207C18.4409 30.5245 18.4432 30.5262 18.732 30.4504C21.5259 29.7171 24.3193 28.9833 27.1127 28.2501C27.5913 28.1243 27.5958 28.1249 27.6375 27.6162C27.9235 24.1426 28.2079 20.6689 28.4916 17.1953C28.5161 16.8938 28.5133 16.8938 28.2056 16.9286C26.1479 17.1622 24.0895 17.3923 22.0329 17.6343C21.798 17.6618 21.743 17.6012 21.7441 17.3676C21.7535 15.5727 21.7491 13.7772 21.7491 11.9823C21.7491 11.6527 21.7491 11.6538 22.0891 11.6522C24.2893 11.6421 26.4895 11.628 28.6892 11.6275C28.9173 11.6275 28.9769 11.5567 28.9902 11.3383C29.0626 10.17 29.1427 9.00216 29.2401 7.83604C29.2612 7.58283 29.1889 7.53623 28.9568 7.53791L28.9574 7.53735Z" fill="white"/>
<path d="M33.7054 0.010106C28.1363 0.0168433 22.5679 0.0151589 16.9989 0.0151589V0.00505298C11.421 0.00505298 5.84362 0.00617586 0.266267 0C0.0397896 0 -0.0186382 0.0426696 0.00417644 0.285774C0.27684 3.19404 0.536704 6.104 0.797682 9.01339C1.16661 13.1231 1.53332 17.2329 1.9028 21.3427C2.30679 25.8319 2.71578 30.3212 3.11309 34.8116C3.13313 35.0351 3.21437 35.1159 3.41581 35.1726C7.85577 36.4308 12.2946 37.6952 16.7329 38.9607C16.8848 39.0039 17.025 39.0168 17.1836 38.9714C21.6703 37.6879 26.1581 36.4078 30.6476 35.1334C30.8251 35.0828 30.8947 35.0053 30.9108 34.8217C31.1696 31.8686 31.4339 28.9154 31.6971 25.9628C31.9453 23.1825 32.1929 20.4022 32.4411 17.622C32.7087 14.6261 32.9775 11.6297 33.2452 8.63385C33.4928 5.86201 33.7354 3.09018 33.9947 0.31946C34.0203 0.0477226 33.948 0.00954451 33.7048 0.010106H33.7054ZM15.7263 30.1826C15.7263 30.4199 15.609 30.5065 15.3746 30.4425C12.2557 29.593 9.13673 28.7413 6.01612 27.8975C5.81858 27.8442 5.73956 27.7695 5.74068 27.5494C5.74624 26.3704 5.73289 25.1908 5.72677 24.0117C5.7251 23.7013 5.72621 23.6996 6.02614 23.7844C8.00378 24.3436 9.98087 24.9022 11.9691 25.4221C12.3024 25.5091 12.3018 25.5102 12.3024 25.161C12.3108 20.1142 12.3191 15.0669 12.3286 10.0201C12.3297 9.28288 12.3436 8.54627 12.338 7.80909C12.3363 7.60529 12.3992 7.54129 12.6023 7.54353C13.5305 7.55308 14.4587 7.54746 15.3868 7.54803C15.7252 7.54803 15.7257 7.54859 15.7257 7.88657C15.7257 11.6157 15.7257 15.3448 15.7257 19.0733C15.7257 22.776 15.7257 26.4793 15.7257 30.182L15.7263 30.1826ZM30.9236 3.48262C30.8296 4.60326 30.725 5.72278 30.6276 6.84285C30.5519 7.71309 30.4835 8.58445 30.4067 9.45468C30.3115 10.5405 30.2091 11.6252 30.1134 12.711C30.0372 13.5729 29.9676 14.4352 29.892 15.297C29.8135 16.1847 29.7289 17.0712 29.651 17.9588C29.5742 18.8381 29.5041 19.7173 29.4273 20.5965C29.3494 21.4841 29.266 22.3712 29.1875 23.2583C29.128 23.9303 29.0745 24.6029 29.0155 25.2756C28.9371 26.1632 28.8542 27.0503 28.7763 27.9373C28.6995 28.8076 28.6271 29.6784 28.552 30.5492C28.4825 31.3593 28.4096 32.1695 28.3439 32.9797C28.3244 33.2188 28.0985 33.1554 27.9822 33.2503C28.0345 33.3463 27.9366 33.3109 27.9138 33.3182C27.5254 33.4378 27.1358 33.5523 26.7463 33.668C26.2711 33.7455 25.8209 33.9195 25.3552 34.0324C24.9245 34.1525 24.4938 34.2732 24.0637 34.3934C23.8745 34.445 23.6853 34.4967 23.4961 34.5483C23.3069 34.6 23.1171 34.6516 22.9279 34.7027C22.7387 34.7544 22.5495 34.8066 22.3609 34.8582C22.1717 34.9099 21.982 34.9621 21.7928 35.0138C21.5357 35.0839 21.2786 35.1536 21.0215 35.2237C20.8841 35.2591 20.7472 35.295 20.6097 35.3304C20.4205 35.3821 20.2313 35.4332 20.0427 35.4848C19.8535 35.537 19.6643 35.5892 19.4757 35.6415C19.287 35.6931 19.0984 35.7448 18.9103 35.7964C18.7206 35.8486 18.5308 35.9008 18.3411 35.9531C18.1524 36.0047 17.9643 36.0569 17.7757 36.1086C17.5626 36.1389 17.37 36.2938 17.1391 36.2136C17.064 36.1793 17.0518 36.1125 17.0512 36.0406C17.0506 35.9542 17.0501 35.8672 17.0501 35.7807C17.0501 25.0566 17.0501 14.333 17.0501 3.60895C17.0501 3.53091 17.0556 3.45231 17.0495 3.37483C17.0345 3.17945 17.1291 3.10702 17.3122 3.12218C17.3634 3.12667 17.4151 3.12218 17.4669 3.12218C21.8401 3.12218 26.2138 3.12218 30.587 3.12218C30.9453 3.12218 30.9559 3.1233 30.9259 3.4815L30.9236 3.48262Z" fill="white"/>
</g>
<defs>
<clipPath id="clip0_317_188">
<rect width="34" height="39" fill="white"/>
</clipPath>
</defs>
</svg>
