<svg width="39" height="35" viewBox="0 0 39 35" fill="none" xmlns="http://www.w3.org/2000/svg">
<g clip-path="url(#clip0_318_264)">
<path d="M5.41751 22.7322V23.142C5.41751 26.8922 5.41751 30.6414 5.41751 34.3917C5.41751 34.9774 5.40262 34.9935 4.83567 34.9935C3.38375 34.9935 1.93182 34.986 0.479886 34.9989C0.118233 35.0021 0.00016413 34.8615 0.00122781 34.5065C0.0129283 31.3129 0.013992 28.1194 0.013992 24.9259C0.013992 21.5178 0.00654624 18.1098 0.00654624 14.7006C0.00654624 11.2926 0.0129283 7.88449 0.013992 4.47535C0.013992 3.16233 0.013992 1.84931 0.0022915 0.537357C-0.000899554 0.210174 0.0990869 0.0675008 0.455421 0.0664281C3.53266 0.0535553 6.61203 -0.0376268 9.6882 0.0170825C12.1538 0.0599917 14.5237 0.62103 16.6022 2.05098C18.8955 3.62897 20.1581 5.88385 20.6516 8.59679C21.0739 10.9128 21.0016 13.2127 20.2548 15.4601C19.2954 18.3458 17.3478 20.3089 14.6046 21.506C12.5889 22.3857 10.4668 22.7129 8.28627 22.7311C7.3481 22.7386 6.40993 22.7322 5.41751 22.7322ZM5.99935 16.9705C7.43213 17.1583 9.89137 17.125 11.2231 16.8504C12.9335 16.4985 14.294 15.6414 14.9641 13.9379C15.5332 12.4908 15.5778 10.9815 15.3194 9.46034C14.8854 6.90938 13.2292 5.27668 10.6679 5.04283C9.23507 4.91195 7.78315 4.98919 6.33973 4.97846C6.22485 4.97846 6.10997 5.01708 6.00041 5.03746V16.9695L5.99935 16.9705Z" fill="white"/>
<path d="M24.1169 27.3869C24.6232 27.7044 25.0413 27.9855 25.4763 28.2365C27.259 29.2631 29.2056 29.6482 31.2308 29.6214C33.0412 29.5978 34.0528 28.2676 33.6848 26.4944C33.5465 25.8293 33.1242 25.3594 32.5881 25.0161C31.8605 24.5495 31.1075 24.1204 30.3405 23.7213C29.0365 23.0434 27.7324 22.374 26.5666 21.4568C24.4913 19.823 23.7914 17.64 24.1084 15.0966C24.4967 11.9814 26.2677 9.96142 29.1918 8.98524C29.9236 8.74066 30.7182 8.62587 31.4915 8.58618C33.1508 8.49929 34.8144 8.48642 36.4472 8.89942C36.494 8.91122 36.5418 8.91658 36.5886 8.93053C37.7417 9.27595 37.8502 9.42291 37.8502 10.6319C37.8502 11.7389 37.8502 12.8449 37.8502 13.952C37.8502 14.0732 37.847 14.1955 37.8342 14.3156C37.8097 14.5473 37.731 14.6514 37.4843 14.5012C35.5707 13.3309 33.4433 13.1539 31.284 13.215C30.1108 13.2483 29.313 13.9026 29.1014 14.9303C28.9227 15.7971 29.1131 16.5587 29.8321 17.1498C30.7479 17.9018 31.8191 18.3716 32.8594 18.8973C34.3134 19.6321 35.7526 20.3852 36.962 21.5104C38.4586 22.9039 39.0489 24.6514 38.9968 26.6735C38.9649 27.876 38.783 29.041 38.299 30.1427C37.3407 32.3214 35.6473 33.5937 33.3837 34.1558C32.0552 34.4851 30.7086 34.4358 29.3651 34.3575C27.9313 34.2727 26.5177 34.0582 25.1987 33.4306C25.1444 33.4049 25.0881 33.3834 25.0359 33.3545C23.8382 32.6754 24.0818 32.8707 24.0669 31.7132C24.051 30.4484 24.0616 29.1837 24.0659 27.9189C24.0659 27.7677 24.0946 27.6164 24.1169 27.3879V27.3869Z" fill="white"/>
</g>
<defs>
<clipPath id="clip0_318_264">
<rect width="39" height="35" fill="white"/>
</clipPath>
</defs>
</svg>
