<svg width="37" height="38" viewBox="0 0 37 38" fill="none" xmlns="http://www.w3.org/2000/svg">
<g clip-path="url(#clip0_317_194)">
<path d="M25.7304 28.1316C23.6538 28.1326 21.5772 28.126 19.5015 28.1392C19.1564 28.1411 18.6391 28.0154 18.6707 28.6184C18.6968 29.1211 19.162 29.0276 19.4867 29.0295C21.7828 29.0408 24.0799 29.0616 26.3761 29.0238C27.1939 29.0105 27.5251 29.3035 27.473 30.1371C27.4274 30.8695 27.4748 31.6066 27.4572 32.3409C27.4162 34.1205 26.6561 35.5182 25.0977 36.3206C20.8748 38.4952 16.5653 38.5424 12.2753 36.554C10.3653 35.6685 9.39397 34.1129 9.46375 31.8826C9.5419 29.3924 9.47212 26.8983 9.48422 24.4053C9.49817 21.5058 11.117 19.5609 13.9695 19.3728C16.6639 19.1951 19.3852 19.1536 22.0796 19.318C26.1742 19.5675 28.6369 16.2919 28.3578 12.8935C28.2926 12.1006 28.3671 11.2963 28.3457 10.4977C28.3298 9.89951 28.555 9.61126 29.169 9.62544C30.1124 9.64717 31.0586 9.59614 32.0002 9.64339C33.5474 9.72184 34.7364 10.4996 35.3774 11.8993C37.534 16.6132 37.5973 21.3414 35.2165 26.01C34.4657 27.4814 33.2097 28.1468 31.5806 28.1345C29.6305 28.1203 27.6795 28.1307 25.7295 28.1326L25.7304 28.1316ZM23.4379 31.5906C22.5867 31.6095 21.8731 32.3353 21.8777 33.1764C21.8824 34.0515 22.6546 34.7839 23.5412 34.7546C24.4223 34.7253 25.0112 34.0629 24.9973 33.1168C24.9833 32.202 24.3385 31.5707 23.4379 31.5906Z" fill="white"/>
<path d="M11.6417 9.62612C13.5294 9.62517 15.4181 9.63651 17.3058 9.61478C17.6668 9.61005 18.2753 9.83025 18.2837 9.20746C18.293 8.51756 17.6473 8.73776 17.2593 8.73398C15.0571 8.7113 12.8531 8.68956 10.6518 8.73776C9.7419 8.75761 9.40696 8.42873 9.47209 7.51296C9.55768 6.30423 9.41627 5.08982 9.58652 3.87731C9.78935 2.43136 10.5755 1.51087 11.8762 0.96746C13.3257 0.36262 14.8617 0.180223 16.3941 0.0724863C18.5618 -0.0787237 20.7287 -0.00689896 22.8825 0.370181C25.709 0.864448 27.4032 2.77536 27.4525 5.6975C27.4962 8.28602 27.5018 10.8764 27.4506 13.464C27.3901 16.5203 25.4754 18.3717 22.4722 18.3746C19.8606 18.3774 17.2491 18.3689 14.6375 18.3774C10.8658 18.3897 8.61335 20.6994 8.60684 24.5468C8.60498 25.4739 8.59475 26.401 8.60405 27.3271C8.60963 27.8913 8.35657 28.1427 7.803 28.1314C6.92194 28.1144 6.03715 28.1692 5.16074 28.103C3.37442 27.9679 2.0719 27.0323 1.34063 25.3869C-0.208441 21.9034 -0.327529 18.2971 0.534927 14.6094C0.921032 12.9612 1.61788 11.5522 3.05624 10.6024C4.00336 9.97674 5.03049 9.62706 6.16554 9.62706C7.99093 9.62706 9.8154 9.62706 11.6408 9.62612H11.6417ZM13.5192 6.16436C14.3649 6.15113 15.0906 5.42815 15.0971 4.59177C15.1046 3.71854 14.3361 2.9795 13.4448 3.00123C12.5432 3.02297 11.9469 3.67695 11.9767 4.61162C12.0055 5.54723 12.6326 6.17759 13.5201 6.16436H13.5192Z" fill="white"/>
</g>
<defs>
<clipPath id="clip0_317_194">
<rect width="37" height="38" fill="white"/>
</clipPath>
</defs>
</svg>
