<svg width="41" height="38" viewBox="0 0 41 38" fill="none" xmlns="http://www.w3.org/2000/svg">
<g clip-path="url(#clip0_317_184)">
<path d="M8.595 26.2453C8.20499 26.1142 7.83428 25.9949 7.46689 25.8646C6.08388 25.3729 4.7561 24.7544 3.51817 23.9396C2.78673 23.4584 2.10121 22.9147 1.50288 22.2608C0.940489 21.6471 0.47194 20.9689 0.200395 20.1569C-0.120401 19.1986 -0.0478559 18.2673 0.362124 17.3569C0.601723 16.825 0.928509 16.3556 1.30721 15.9235C2.11652 15.0013 3.08956 14.3065 4.13248 13.7101C5.49553 12.9307 6.94177 12.3628 8.43128 11.91C8.47787 11.8961 8.52445 11.8815 8.57104 11.8663C8.58169 11.8628 8.59167 11.8545 8.61963 11.8372C8.58635 11.686 8.55241 11.5286 8.5178 11.3712C8.30149 10.3983 8.12778 9.41778 8.03594 8.4234C7.99667 7.99625 7.97471 7.56701 7.95341 7.13847C7.93744 6.82296 7.9208 6.50606 7.93078 6.19125C7.96473 5.09563 8.08053 4.01249 8.43261 2.96887C8.66089 2.29278 8.98036 1.67077 9.45423 1.14793C9.89815 0.658364 10.4406 0.334531 11.0689 0.168801C11.6239 0.0224876 12.1843 0.0162467 12.7494 0.0793489C13.6592 0.18059 14.5111 0.485006 15.3364 0.878874C16.7886 1.57161 18.0878 2.50982 19.3044 3.5784C19.7124 3.9369 20.1084 4.30928 20.5244 4.68997C20.5749 4.64628 20.6368 4.59844 20.6921 4.54366C21.9127 3.32946 23.2258 2.24077 24.6947 1.36636C25.5573 0.853218 26.4591 0.437159 27.4268 0.18475C28.0145 0.0308088 28.6115 -0.0329869 29.2138 0.013473C30.3526 0.101539 31.2391 0.659057 31.884 1.63541C32.3492 2.33924 32.6194 3.12906 32.7945 3.95632C32.9302 4.59913 33.0128 5.24957 33.0268 5.90833C33.0354 6.33201 33.0627 6.75639 33.0461 7.17869C33.0208 7.83398 32.9715 8.48789 32.8877 9.13902C32.7845 9.94132 32.6481 10.736 32.4757 11.5244C32.4517 11.634 32.4264 11.7435 32.3985 11.8704C32.5515 11.9211 32.6933 11.9703 32.8364 12.0154C34.1049 12.4169 35.3375 12.9127 36.5162 13.5472C37.3382 13.9896 38.1216 14.4958 38.8364 15.1108C39.4194 15.6129 39.9472 16.1697 40.3545 16.8403C40.7591 17.5053 41.0127 18.2223 41.0007 19.0183C40.9927 19.5488 40.867 20.0543 40.6507 20.5362C40.3485 21.2103 39.9185 21.7844 39.4154 22.3073C38.5814 23.1741 37.6124 23.8411 36.5808 24.4181C35.5891 24.9735 34.5549 25.4249 33.4893 25.8008C33.1625 25.9159 32.8344 26.0268 32.4923 26.1447C32.5156 26.2619 32.5369 26.3777 32.5629 26.4928C32.7525 27.3229 32.9016 28.1612 32.9875 29.01C33.0367 29.4926 33.07 29.978 33.0966 30.4627C33.1173 30.8413 33.1306 31.2213 33.1206 31.5999C33.0873 32.7926 32.9449 33.968 32.5369 35.0927C32.2833 35.7917 31.9359 36.4345 31.4188 36.9629C30.8717 37.5211 30.2128 37.847 29.4547 37.9525C28.6221 38.0683 27.8102 37.949 27.0115 37.7007C25.9679 37.3769 25.0069 36.8679 24.0877 36.2674C23.0874 35.6135 22.159 34.8611 21.2851 34.0339C21.0561 33.8175 20.8278 33.5998 20.5829 33.3675C20.529 33.4126 20.4711 33.4549 20.4205 33.5055C19.2305 34.6899 17.94 35.7369 16.5038 36.5808C15.6286 37.0954 14.7154 37.5191 13.7364 37.7742C13.2525 37.9004 12.762 37.9844 12.2635 37.9885C11.3464 37.9961 10.4952 37.7798 9.7717 37.1522C9.31114 36.7528 8.96505 36.2605 8.70482 35.7037C8.28485 34.8064 8.07321 33.8487 7.99135 32.8592C7.95274 32.3939 7.92146 31.9265 7.92146 31.4599C7.92146 30.9807 7.94809 30.5002 7.99201 30.0231C8.04925 29.408 8.1178 28.7929 8.21431 28.1834C8.30815 27.5919 8.44392 27.008 8.56106 26.42C8.57171 26.3652 8.58302 26.3104 8.59633 26.2425L8.595 26.2453ZM20.4365 25.8556C20.4365 25.8687 20.4365 25.8819 20.4372 25.8951C21.3889 25.8611 22.3413 25.8278 23.2931 25.7918C23.5719 25.7814 23.8495 25.7571 24.1283 25.7474C24.2248 25.7439 24.2821 25.7044 24.332 25.6212C24.5123 25.3209 24.7 25.0255 24.8831 24.7266C25.9885 22.923 26.9949 21.0605 27.9067 19.1425C27.9592 19.0315 27.9692 18.942 27.91 18.8276C27.6717 18.3651 27.4448 17.8964 27.2092 17.4325C26.5729 16.1794 25.8914 14.9534 25.1646 13.7552C24.8857 13.2954 24.5949 12.8426 24.3094 12.387C24.2701 12.3246 24.2388 12.2629 24.147 12.2581C23.7596 12.2387 23.3736 12.204 22.9862 12.186C22.5017 12.1631 22.0165 12.136 21.5313 12.1367C20.5656 12.1388 19.5999 12.1513 18.6349 12.1742C18.0592 12.188 17.4848 12.2331 16.9091 12.2574C16.8126 12.2615 16.7547 12.2927 16.7028 12.3766C16.2741 13.0749 15.8302 13.7628 15.4123 14.468C14.5856 15.8632 13.8415 17.3062 13.1427 18.7756C13.0635 18.942 13.0582 19.0724 13.1401 19.2319C13.6292 20.1861 14.0911 21.1562 14.6043 22.0958C15.1207 23.0409 15.6838 23.9583 16.2315 24.8848C16.3846 25.1434 16.5543 25.391 16.7154 25.6441C16.762 25.7169 16.8152 25.7578 16.9077 25.7578C17.0528 25.7578 17.1973 25.7786 17.3424 25.7862C17.8022 25.8105 18.2621 25.8438 18.722 25.8528C19.2931 25.8646 19.8648 25.8556 20.4358 25.8556H20.4365ZM9.09949 13.6276C9.05889 13.6373 9.03027 13.6422 9.00232 13.6505C7.69917 14.0423 6.42996 14.5242 5.22664 15.1823C4.50385 15.5775 3.81434 16.0227 3.19205 16.5768C2.77475 16.9484 2.39405 17.3548 2.10587 17.8464C1.92018 18.1633 1.78308 18.4996 1.76378 18.8755C1.74314 19.2666 1.86228 19.623 2.03399 19.9635C2.25429 20.3989 2.55578 20.7727 2.88789 21.116C3.30253 21.5438 3.76309 21.9176 4.25161 22.2511C5.57207 23.1519 7.00899 23.7898 8.50515 24.2939C8.68818 24.3557 8.87453 24.4077 9.06555 24.4659C9.08552 24.4181 9.10348 24.3855 9.11347 24.3501C9.43759 23.2427 9.81629 22.1554 10.2383 21.0848C10.4918 20.4412 10.764 19.8068 11.0289 19.1681C11.0675 19.0745 11.0961 18.9941 11.0476 18.8831C10.4 17.4241 9.8296 15.9333 9.34308 14.4077C9.26122 14.1511 9.18268 13.8932 9.10016 13.629L9.09949 13.6276ZM10.3161 26.6925C10.2962 26.7626 10.2762 26.816 10.2662 26.8707C10.1304 27.5891 9.98468 28.3061 9.86554 29.0273C9.7524 29.7117 9.70714 30.4058 9.68185 31.0993C9.65856 31.7442 9.69516 32.3877 9.77769 33.0277C9.85889 33.6573 10.004 34.2683 10.2595 34.848C10.6376 35.7071 11.2592 36.1752 12.187 36.1579C12.8632 36.1447 13.5061 35.972 14.1337 35.7265C15.2046 35.307 16.175 34.6996 17.1014 34.0089C17.8235 33.4708 18.4971 32.8731 19.1487 32.2469C19.2132 32.1845 19.2718 32.1145 19.3383 32.0416C19.1972 31.8822 19.0635 31.7435 18.943 31.5944C18.3334 30.8406 17.7171 30.0924 17.1234 29.3248C16.7127 28.7929 16.3354 28.2333 15.9447 27.6848C15.8788 27.5926 15.8189 27.5052 15.6891 27.5011C15.5074 27.4948 15.3264 27.4789 15.146 27.4567C14.4545 27.3735 13.7617 27.302 13.0735 27.1953C12.2708 27.0704 11.4728 26.913 10.6735 26.7688C10.5557 26.7473 10.4392 26.7189 10.3175 26.6925H10.3161ZM21.8129 32.0326C21.8608 32.0853 21.9007 32.1332 21.944 32.1762C22.5443 32.7767 23.1746 33.3397 23.8388 33.8626C24.7233 34.5588 25.6551 35.1732 26.6767 35.6288C27.3216 35.9158 27.9859 36.1287 28.692 36.1662C29.4667 36.2078 30.0937 35.938 30.5156 35.228C30.7546 34.8265 30.9223 34.3958 31.0467 33.9437C31.2863 33.0742 31.3396 32.1803 31.3695 31.2837C31.3755 31.1076 31.3556 30.9308 31.3469 30.7546C31.3303 30.4079 31.3263 30.0598 31.2943 29.7145C31.2191 28.8976 31.094 28.087 30.9309 27.284C30.8857 27.0628 30.8311 26.8444 30.7792 26.6183C30.7213 26.628 30.68 26.6329 30.6394 26.6419C30.1882 26.7376 29.7389 26.8458 29.2857 26.9283C28.6534 27.0427 28.0191 27.1488 27.3835 27.2396C26.7659 27.3277 26.1456 27.395 25.526 27.4643C25.2451 27.4955 25.2445 27.4879 25.0767 27.7334C25.0628 27.7542 25.0488 27.775 25.0348 27.7958C24.1922 29.0502 23.2984 30.263 22.3333 31.4189C22.1629 31.6228 21.9892 31.8246 21.8122 32.034L21.8129 32.0326ZM10.3274 11.3843C10.3847 11.3809 10.4153 11.383 10.4439 11.376C11.2958 11.177 12.153 11.0134 13.0163 10.8754C13.8841 10.7367 14.754 10.616 15.6286 10.5384C15.739 10.5287 15.8176 10.4884 15.8855 10.3914C16.2209 9.91081 16.557 9.43026 16.9044 8.95873C17.5726 8.05103 18.2741 7.17037 19.0169 6.32716C19.1054 6.22661 19.1906 6.1219 19.2864 6.00887C19.0355 5.7745 18.7972 5.55121 18.5576 5.32931C17.6013 4.44588 16.581 3.65329 15.4635 3.00216C14.7301 2.57501 13.9687 2.21512 13.1474 2.01125C12.6555 1.8892 12.1584 1.81847 11.6525 1.91417C11.3031 1.98004 10.9963 2.12636 10.7461 2.39887C10.5198 2.64504 10.3541 2.92935 10.2229 3.23723C9.89616 4.00486 9.76837 4.82103 9.71912 5.64898C9.67652 6.36183 9.68518 7.07745 9.74241 7.79099C9.80964 8.62241 9.9281 9.44552 10.0858 10.2624C10.1571 10.6334 10.2442 11.0002 10.3268 11.3837L10.3274 11.3843ZM30.6747 11.4114C30.6913 11.3594 30.7106 11.3143 30.7213 11.2665C30.7745 11.0203 30.8244 10.7727 30.8764 10.5259C31.072 9.59322 31.1978 8.64946 31.2544 7.69807C31.2823 7.22723 31.299 6.75431 31.281 6.27931C31.2551 5.59559 31.1965 4.9188 31.0487 4.25241C30.9256 3.6949 30.7432 3.16026 30.4331 2.6811C30.1802 2.28931 29.8521 2.00501 29.4008 1.89683C29.1506 1.8365 28.897 1.81986 28.6414 1.83789C28.0045 1.88227 27.4015 2.06949 26.8165 2.32121C25.7376 2.78581 24.7519 3.41891 23.8335 4.16296C23.2784 4.613 22.7466 5.09285 22.2115 5.56785C22.0565 5.70515 21.9247 5.87158 21.7769 6.03106C21.8195 6.08515 21.8634 6.14479 21.91 6.20165C22.4152 6.81533 22.9383 7.41446 23.4215 8.04687C24.0072 8.81311 24.5603 9.60709 25.1233 10.3914C25.1819 10.4725 25.2405 10.5266 25.3403 10.5377C25.9839 10.6119 26.6295 10.6743 27.2697 10.7714C28.0424 10.8885 28.8118 11.0321 29.5812 11.1735C29.9439 11.2401 30.3026 11.3296 30.6734 11.4114H30.6747ZM31.9293 13.6498C31.9006 13.7337 31.8753 13.803 31.8534 13.8745C31.5326 14.9368 31.1645 15.9811 30.7526 17.0081C30.5023 17.6322 30.2374 18.25 29.9745 18.8679C29.9413 18.9455 29.9419 19.0045 29.9765 19.0793C30.0843 19.313 30.1855 19.5502 30.2887 19.786C30.8464 21.0577 31.3476 22.353 31.7808 23.6761C31.8554 23.9029 31.9273 24.1303 32.0038 24.3675C32.0697 24.3494 32.1276 24.3349 32.1842 24.3168C33.3708 23.9396 34.5236 23.4729 35.6244 22.8738C36.3419 22.4834 37.0274 22.041 37.6523 21.5022C38.1701 21.0556 38.638 20.564 38.9668 19.9447C39.3089 19.3012 39.3229 18.6591 38.9748 18.0129C38.6979 17.4983 38.3212 17.0705 37.8973 16.687C37.2337 16.0865 36.4936 15.6046 35.7149 15.1837C34.7046 14.6372 33.6477 14.2101 32.5655 13.8488C32.3592 13.7802 32.1502 13.7184 31.9293 13.6491V13.6498ZM30.2973 24.8383C29.8973 23.5582 29.4481 22.335 28.9243 21.1028C28.1735 22.6165 27.3642 24.0492 26.529 25.4665C26.5263 25.4707 26.529 25.479 26.5316 25.4846C26.533 25.4901 26.537 25.495 26.5436 25.5088C27.7955 25.3514 29.0401 25.1351 30.2973 24.8383ZM14.5444 25.5456C13.6585 24.1095 12.8619 22.672 12.1078 21.1673C11.6046 22.4175 11.1634 23.6442 10.79 24.9166C12.0332 25.1975 13.2632 25.3993 14.545 25.5449L14.5444 25.5456ZM20.5596 30.7158C20.9942 30.3157 22.8485 27.9109 22.9157 27.6647C22.123 27.6827 21.3297 27.7139 20.537 27.7153C19.741 27.7167 18.945 27.6883 18.121 27.673C18.8951 28.7402 19.7024 29.7499 20.5603 30.7158H20.5596ZM22.8937 10.3484C22.7147 9.99125 20.7726 7.52679 20.515 7.3569C20.0878 7.74592 18.2322 10.0842 18.1457 10.3546C18.2788 10.3435 18.4032 10.3276 18.5277 10.3234C19.0189 10.3081 19.5094 10.2873 20.0006 10.2866C20.6495 10.2853 21.2991 10.3012 21.948 10.3102C21.9779 10.3102 22.0085 10.3158 22.0385 10.3172C22.316 10.3276 22.5936 10.3373 22.8931 10.3484H22.8937ZM26.4957 12.5126C27.3649 13.9403 28.1516 15.3619 28.9083 16.8486C29.4108 15.6275 29.8434 14.4271 30.2108 13.1887C28.9822 12.8981 27.7662 12.6804 26.495 12.5119L26.4957 12.5126ZM10.8173 13.19C11.1827 14.4174 11.61 15.6205 12.1071 16.8437C12.8532 15.3508 13.6406 13.9292 14.4911 12.5334C14.0732 12.5195 11.194 13.0333 10.8173 13.19Z" fill="white"/>
<path d="M24.1609 18.9695C24.1782 21.0602 22.5056 22.7855 20.5037 22.7834C18.5463 22.7813 16.8325 21.1573 16.8345 18.9598C16.8365 16.7533 18.5889 15.0724 20.6408 15.148C22.5522 15.2181 24.1808 16.8878 24.1609 18.9702V18.9695Z" fill="white"/>
</g>
<defs>
<clipPath id="clip0_317_184">
<rect width="41" height="38" fill="white"/>
</clipPath>
</defs>
</svg>
