<svg width="53" height="36" viewBox="0 0 53 36" fill="none" xmlns="http://www.w3.org/2000/svg">
<g clip-path="url(#clip0_318_260)">
<path d="M46.1245 10.1522C46.1245 9.99111 46.1245 9.85871 46.1245 9.7252C46.1245 6.67325 46.1245 3.6213 46.1245 0.569344C46.1245 0.0121371 46.1366 0 46.7072 0C48.6486 0 50.59 0 52.5313 0C53.0247 0 53.0379 0.0121372 53.0379 0.506452C53.0379 10.118 53.0313 19.7307 53.0457 29.3422C53.0479 30.6894 53.1571 32.0367 53.2145 33.3839C53.2366 33.8925 53.1869 33.9621 52.7212 34.1529C50.3505 35.1239 47.8804 35.669 45.332 35.8908C43.3575 36.0618 41.393 36.0651 39.4483 35.6282C36.8005 35.0334 34.4662 33.8903 32.6816 31.7718C31.3207 30.1554 30.5184 28.2907 30.195 26.2207C29.8683 24.1353 29.7955 22.0411 30.355 19.9811C31.5812 15.4617 34.4585 12.455 38.8578 10.9202C41.0409 10.1577 43.3112 9.97125 45.6134 10.1489C45.7669 10.161 45.9214 10.15 46.1245 10.15V10.1522ZM46.1245 22.9294C46.1245 20.7502 46.1189 18.571 46.1311 16.3918C46.1322 16.1281 46.0505 16.0398 45.7978 15.9935C44.2052 15.7022 42.6479 15.8114 41.1623 16.458C39.3865 17.2304 38.0168 18.4518 37.412 20.3419C36.869 22.04 36.8877 23.7745 37.3601 25.4958C37.8016 27.1012 38.6448 28.4231 40.1579 29.212C41.9713 30.1576 43.9116 30.1223 45.8706 29.8696C46.1112 29.8387 46.1289 29.6953 46.1278 29.4978C46.1234 27.3087 46.1245 25.1185 46.1245 22.9294Z" fill="white"/>
<path d="M14.2088 23.1014C14.1371 23.2272 14.0863 23.3133 14.0388 23.4004C11.9683 27.2799 9.89671 31.1605 7.82951 35.0422C7.71693 35.2541 7.57014 35.3887 7.32292 35.3887C4.94448 35.392 2.56714 35.3953 0.188704 35.3975C0.150075 35.3975 0.110342 35.3776 -0.0011301 35.3467C0.0827499 35.1481 0.137934 34.955 0.238369 34.7895C2.54728 30.995 4.8606 27.2049 7.17281 23.4126C7.99947 22.0576 8.82172 20.6994 9.65721 19.3488C9.77199 19.1635 9.76978 19.0322 9.65941 18.8446C6.58897 13.6587 3.52404 8.46729 0.458002 3.27698C0.416062 3.20526 0.370811 3.13575 0.331079 3.06293C0.232851 2.87756 0.303487 2.7606 0.491113 2.71426C0.589341 2.68998 0.697502 2.69771 0.801248 2.69771C3.034 2.69771 5.26675 2.70653 7.4995 2.68998C8.03479 2.68667 8.35155 2.87866 8.57339 3.38291C9.60644 5.71987 10.8867 7.92994 12.135 10.1555C12.9616 11.6296 13.7475 13.1269 14.5509 14.6142C14.6138 14.7301 14.6746 14.847 14.7551 14.9971C14.8202 14.9044 14.8655 14.8525 14.8975 14.793C16.872 11.0382 18.863 7.29108 20.8011 3.51862C21.1123 2.91287 21.4401 2.70433 22.12 2.72308C24.1122 2.77715 26.1065 2.73964 28.1009 2.74736C28.23 2.74736 28.4022 2.7926 28.4728 2.88197C28.5181 2.93824 28.4397 3.12913 28.3757 3.23505C25.335 8.25985 22.2922 13.2824 19.2405 18.3006C19.1114 18.5136 19.129 18.6548 19.2515 18.8545C22.4754 24.132 25.6948 29.4128 28.9099 34.6946C29.0169 34.8701 29.0798 35.072 29.1847 35.3114C28.9971 35.3236 28.8955 35.3357 28.7951 35.3357C26.3548 35.3357 23.9146 35.3269 21.4743 35.3357C20.9667 35.3379 20.6698 35.1316 20.4292 34.677C18.426 30.9023 16.4007 27.1387 14.381 23.3729C14.3379 23.2934 14.2838 23.2206 14.2077 23.1014H14.2088Z" fill="white"/>
</g>
<defs>
<clipPath id="clip0_318_260">
<rect width="53" height="36" fill="white"/>
</clipPath>
</defs>
</svg>
