<svg width="24" height="23" viewBox="0 0 24 23" fill="none" xmlns="http://www.w3.org/2000/svg">
<path d="M0 10.8034C0.0862275 10.1512 0.165612 9.4983 0.337382 8.86021C1.0231 6.31055 2.40411 4.19949 4.50231 2.55323C6.22275 1.20317 8.17725 0.340075 10.3685 0.0962589C14.8743 -0.405479 18.6039 1.06279 21.4597 4.52727C22.9379 6.31995 23.7571 8.40415 23.9521 10.7154C24.1382 12.9171 23.7967 15.0275 22.7689 17.0002C21.2756 19.8669 18.9995 21.8812 15.8796 22.9404C15.3184 23.1312 14.942 22.8625 14.9379 22.2654C14.9297 21.1545 14.9406 20.0435 14.929 18.9332C14.9215 18.2495 14.7518 17.6148 14.2529 17.1003C14.0852 16.927 14.2802 16.9317 14.3624 16.9223C14.8202 16.8692 15.276 16.7994 15.718 16.6764C17.0409 16.3077 18.1954 15.6951 18.8777 14.4519C19.2869 13.7063 19.484 12.899 19.5675 12.0594C19.6435 11.2984 19.6366 10.5461 19.4204 9.80525C19.2479 9.21485 18.9591 8.68423 18.5485 8.22145C18.4294 8.08712 18.3911 7.9689 18.4527 7.7889C18.7648 6.86804 18.6532 5.96263 18.3213 5.06863C18.27 4.9296 18.1783 4.88661 18.038 4.88124C17.6534 4.86646 17.2989 4.97796 16.9485 5.11296C16.3435 5.34536 15.7618 5.6241 15.2246 5.98412C15.0624 6.09293 14.9105 6.11442 14.7216 6.0627C13.8518 5.82561 12.9581 5.73224 12.0609 5.72553C11.1323 5.71881 10.2063 5.80949 9.30573 6.05196C9.07032 6.11509 8.89307 6.07681 8.69735 5.94919C7.96989 5.47567 7.18289 5.12976 6.33567 4.91818C6.31309 4.91281 6.2905 4.90475 6.26792 4.90072C5.77861 4.81474 5.70676 4.85437 5.56236 5.31312C5.29752 6.15338 5.24619 6.997 5.54183 7.83994C5.58905 7.97495 5.56099 8.071 5.47066 8.17309C4.51463 9.25112 4.27032 10.5233 4.39829 11.9056C4.46809 12.6592 4.62618 13.3859 4.92387 14.0851C5.31394 14.9999 5.97092 15.6649 6.85235 16.1357C7.67494 16.575 8.56048 16.7953 9.48161 16.9041C9.52814 16.9095 9.57468 16.9135 9.62053 16.9216C9.76287 16.9451 9.8231 16.9988 9.7006 17.1258C9.36048 17.4764 9.18734 17.9056 9.1018 18.3744C9.08469 18.4664 9.07169 18.5598 8.97177 18.6035C8.25458 18.9118 7.00633 19.1052 6.22481 18.4154C5.97913 18.1984 5.76082 17.962 5.59521 17.6799C5.2503 17.0915 4.75689 16.6778 4.09718 16.4655C3.8645 16.3903 3.62566 16.3675 3.3834 16.4279C3.22874 16.4669 3.1692 16.5401 3.26912 16.6905C3.36014 16.8282 3.46826 16.9518 3.61129 17.0311C4.245 17.3803 4.59949 17.9506 4.8876 18.5719C5.05252 18.9272 5.19281 19.2906 5.49119 19.5713C6.00855 20.0576 6.65184 20.2114 7.33276 20.2558C7.83097 20.288 8.33191 20.2961 8.82601 20.2C8.98614 20.1684 9.04294 20.2222 9.04294 20.3713C9.04363 21.0457 9.05868 21.72 9.045 22.3937C9.03541 22.8706 8.62002 23.1124 8.11908 22.9472C7.445 22.7248 6.79281 22.4494 6.17074 22.1096C3.729 20.7743 1.99418 18.8123 0.882806 16.3124C0.411976 15.2532 0.148503 14.1355 0.0349016 12.9843C0.0280582 12.9164 0.0116339 12.8493 0 12.7821C0 12.1232 0 11.4643 0 10.8054L0 10.8034Z" fill="white"/>
</svg>
