<svg width="23" height="21" viewBox="0 0 23 21" fill="none" xmlns="http://www.w3.org/2000/svg">
<path d="M0 0H4.18419V3.55413H0V0ZM0 5.52647H4.18419V20.075H0V5.52647ZM22.8679 20.075H18.6837V12.6543C18.6837 11.0855 18.5917 10.07 18.4147 9.60786C18.2377 9.1457 17.9474 8.78768 17.5438 8.52731C17.1403 8.27344 16.6589 8.14325 16.0925 8.14325C15.3703 8.14325 14.719 8.32551 14.1384 8.69655C13.565 9.05457 13.1685 9.54277 12.9561 10.1416C12.7437 10.7405 12.6375 11.8666 12.6375 13.4875V20.075H8.45333V5.52647H12.3401V7.66156C13.7207 6.02119 15.4624 5.1945 17.5509 5.1945C18.4784 5.1945 19.3209 5.35723 20.0855 5.65666C20.8501 5.9626 21.4307 6.35317 21.8201 6.82835C22.2095 7.29703 22.4856 7.84382 22.6342 8.44268C22.79 9.03504 22.8679 9.90079 22.8679 11.0334V20.0685V20.075Z" fill="white"/>
</svg>
