<svg width="52" height="52" viewBox="0 0 52 52" fill="none" xmlns="http://www.w3.org/2000/svg">
<circle cx="26" cy="26" r="26" fill="#0B2130"/>
<path d="M15 16H19.1842V19.5541H15V16ZM15 21.5265H19.1842V36.075H15V21.5265ZM37.8679 36.075H33.6837V28.6543C33.6837 27.0855 33.5917 26.07 33.4147 25.6079C33.2377 25.1457 32.9474 24.7877 32.5438 24.5273C32.1403 24.2734 31.6589 24.1433 31.0925 24.1433C30.3703 24.1433 29.719 24.3255 29.1384 24.6966C28.565 25.0546 28.1685 25.5428 27.9561 26.1416C27.7437 26.7405 27.6375 27.8666 27.6375 29.4875V36.075H23.4533V21.5265H27.3401V23.6616C28.7207 22.0212 30.4624 21.1945 32.5509 21.1945C33.4784 21.1945 34.3209 21.3572 35.0855 21.6567C35.8501 21.9626 36.4307 22.3532 36.8201 22.8284C37.2095 23.297 37.4856 23.8438 37.6342 24.4427C37.79 25.035 37.8679 25.9008 37.8679 27.0334V36.0685V36.075Z" fill="white"/>
</svg>
